# This file uses centimeters as units for non-parametric coordinates.

mtllib gamejam_playercar.mtl
g default
v -0.813492 2.329375 -4.343835
v -0.762697 2.329375 -4.343835
v -0.813492 2.699867 -4.454966
v -0.762697 2.699867 -4.454966
v -0.813492 2.678425 -4.526450
v -0.762697 2.678425 -4.526450
v -0.813492 2.307933 -4.415319
v -0.762697 2.307933 -4.415319
v -1.154004 2.626631 -4.272757
v 1.340958 2.626631 -4.272757
v -1.154004 2.805244 -4.272757
v 1.340958 2.805244 -4.272757
v -1.154004 2.805244 -4.649219
v 1.340958 2.805244 -4.649219
v -1.154004 2.626631 -4.649219
v 1.340958 2.626631 -4.649219
v 0.097451 1.407217 2.186673
v 1.504632 1.407217 2.186673
v 0.097451 2.297458 2.186673
v 1.450917 2.297458 2.186673
v 0.097451 2.441148 -4.647198
v 1.453536 2.441148 -4.647198
v 0.097451 1.407217 -4.647198
v 1.507252 1.407217 -4.647198
v 1.504632 2.211769 2.186673
v 1.507252 2.203727 -4.647198
v 0.097451 2.441148 0.261332
v 1.559184 2.441148 0.269786
v 1.559184 2.347288 1.521921
v 1.612900 2.210986 1.521608
v 1.612900 1.407217 1.533362
v 1.559184 2.441148 -3.984399
v 1.612900 2.204508 -3.983613
v 1.612900 1.407217 -3.984401
v 0.097451 1.407217 2.186673
v 0.097451 2.297458 2.186673
v 0.097451 2.441148 -4.647198
v 0.097451 1.407217 -4.647198
v 0.097451 2.441148 0.261332
v 0.097451 2.338829 1.632336
v 0.097451 2.337082 1.655741
v 0.097451 1.407217 -3.951135
v 0.097451 1.407217 -3.989654
v 0.097451 1.407217 1.598137
v 0.097451 1.407217 1.595006
v 0.097451 2.220060 -4.647198
v 0.097451 2.212924 -4.647198
v 1.612900 2.209497 0.256073
v 0.097451 2.441148 -4.011239
v 0.097451 2.441148 -4.029327
v 1.612900 1.407217 0.246321
v 0.097451 2.188214 2.186673
v 0.097451 2.174488 2.186673
v -1.309731 1.407217 2.186673
v -1.256015 2.297458 2.186673
v -1.258634 2.441148 -4.647198
v -1.312350 1.407217 -4.647198
v -1.309731 2.211769 2.186673
v -1.312350 2.203727 -4.647198
v -1.364282 2.441148 0.269786
v -1.364282 2.347288 1.521921
v -1.417998 2.210986 1.521608
v -1.417998 1.407217 1.533362
v -1.364282 2.441148 -3.984399
v -1.417998 2.204508 -3.983613
v -1.417998 1.407217 -3.984401
v -1.417998 2.209497 0.256073
v -1.417998 1.407217 0.246321
v -1.106776 3.241236 -0.744118
v 1.345459 3.241236 -0.744118
v -1.106776 3.241236 -2.840451
v 1.345459 3.241236 -2.840451
v -1.109260 2.008051 1.128583
v -1.471038 2.008051 1.128583
v -1.109260 1.176598 1.128583
v -1.471038 1.176598 1.128583
v -1.109260 1.176598 0.297130
v -1.471038 1.176598 0.297130
v -1.109260 2.008051 0.297130
v -1.471038 2.008051 0.297130
v 1.316600 1.176598 1.128583
v 1.678377 1.176598 1.128583
v 1.316600 2.008051 1.128583
v 1.678377 2.008051 1.128583
v 1.316600 2.008051 0.297130
v 1.678377 2.008051 0.297130
v 1.316600 1.176598 0.297130
v 1.678377 1.176598 0.297130
v 0.955900 2.329375 -4.343835
v 1.006694 2.329375 -4.343835
v 0.955900 2.699867 -4.454966
v 1.006694 2.699867 -4.454966
v 0.955900 2.678425 -4.526450
v 1.006694 2.678425 -4.526450
v 0.955900 2.307933 -4.415319
v 1.006694 2.307933 -4.415319
v -1.109260 2.008051 -2.876367
v -1.471038 2.008051 -2.876367
v -1.109260 1.176598 -2.876367
v -1.471038 1.176598 -2.876367
v -1.109260 1.176598 -3.707821
v -1.471038 1.176598 -3.707821
v -1.109260 2.008051 -3.707821
v -1.471038 2.008051 -3.707821
v 1.316600 1.176598 -2.876367
v 1.678377 1.176598 -2.876367
v 1.316600 2.008051 -2.876367
v 1.678377 2.008051 -2.876367
v 1.316600 2.008051 -3.707821
v 1.678377 2.008051 -3.707821
v 1.316600 1.176598 -3.707821
v 1.678377 1.176598 -3.707821
vt 0.642784 0.370965
vt 0.671731 0.370965
vt 0.642784 0.399912
vt 0.671731 0.399912
vt 0.642784 0.428860
vt 0.671731 0.428860
vt 0.642784 0.457807
vt 0.671731 0.457807
vt 0.642784 0.486755
vt 0.671731 0.486755
vt 0.700678 0.370965
vt 0.700678 0.399912
vt 0.613836 0.370965
vt 0.613836 0.399912
vt 0.368287 0.361001
vt 0.414778 0.361001
vt 0.414778 0.407492
vt 0.368287 0.407492
vt 0.414778 0.453983
vt 0.368287 0.453983
vt 0.414778 0.500475
vt 0.368287 0.500475
vt 0.414778 0.546966
vt 0.368287 0.546966
vt 0.461269 0.361001
vt 0.461269 0.407492
vt 0.321796 0.361001
vt 0.321796 0.407492
vt 0.487720 0.742545
vt 0.056980 0.742545
vt 0.056980 0.946476
vt 0.487720 0.937026
vt 0.319049 0.456331
vt 0.140391 0.456560
vt 0.140391 0.341255
vt 0.319049 0.340038
vt 0.685597 0.369903
vt 0.685597 0.480978
vt 0.657093 0.485378
vt 0.659054 0.369903
vt 0.576496 0.573824
vt 0.576496 0.501826
vt 0.584002 0.496431
vt 0.583942 0.573824
vt 0.875321 0.506015
vt 0.875303 0.470571
vt 0.890340 0.470454
vt 0.890340 0.506015
vt 0.875321 0.351153
vt 0.890340 0.351153
vt 0.319049 0.508515
vt 0.153624 0.508515
vt 0.140391 0.490498
vt 0.319049 0.494125
vt 0.735478 0.471659
vt 0.750549 0.471541
vt 0.750542 0.491957
vt 0.735478 0.484493
vt 0.735478 0.351153
vt 0.750283 0.351153
vt 0.778917 0.506015
vt 0.779227 0.471318
vt 0.779448 0.351153
vt 1.005332 0.651843
vt 1.006119 0.660250
vt 1.006342 0.662631
vt 0.998194 0.573880
vt 0.943455 -0.022383
vt 0.925790 -0.214782
vt 0.918647 -0.292575
vt 0.918541 -0.293714
vt 0.917778 -0.301863
vt 0.925318 -0.219730
vt 0.996414 0.554703
vt 0.631914 0.496431
vt 0.646490 0.496431
vt 0.647188 0.573824
vt 0.653889 0.501960
vt 0.653889 0.573824
vt 0.478526 0.978395
vt 0.072157 0.972778
vt 0.072157 0.698839
vt 0.478526 0.698839
vt 0.153303 0.323291
vt 0.319049 0.323291
vt 0.073422 0.968195
vt 0.487720 0.968195
vt 0.487720 0.742545
vt 0.487720 0.937026
vt 0.056980 0.946476
vt 0.056980 0.742545
vt 0.319049 0.456331
vt 0.319049 0.340038
vt 0.140391 0.341255
vt 0.140391 0.456560
vt 0.685597 0.369903
vt 0.659054 0.369903
vt 0.657093 0.485378
vt 0.685597 0.480978
vt 0.576496 0.573824
vt 0.583942 0.573824
vt 0.584002 0.496431
vt 0.576496 0.501826
vt 0.875321 0.506015
vt 0.890340 0.506015
vt 0.890340 0.470454
vt 0.875303 0.470571
vt 0.890340 0.351153
vt 0.875321 0.351153
vt 0.319049 0.508515
vt 0.319049 0.494125
vt 0.140391 0.490498
vt 0.153624 0.508515
vt 0.735478 0.471659
vt 0.735478 0.484493
vt 0.750542 0.491957
vt 0.750549 0.471541
vt 0.735478 0.351153
vt 0.750283 0.351153
vt 0.778917 0.506015
vt 0.779227 0.471318
vt 0.779448 0.351153
vt 1.005332 0.651843
vt 0.996414 0.554703
vt 0.925318 -0.219730
vt 0.917778 -0.301863
vt 0.918541 -0.293714
vt 0.918647 -0.292575
vt 0.925790 -0.214782
vt 0.943455 -0.022383
vt 0.998194 0.573880
vt 1.006342 0.662631
vt 1.006119 0.660250
vt 0.647188 0.573824
vt 0.646490 0.496431
vt 0.631914 0.496431
vt 0.653889 0.573824
vt 0.653889 0.501960
vt 0.478526 0.978395
vt 0.478526 0.698839
vt 0.072157 0.698839
vt 0.072157 0.972778
vt 0.319049 0.323291
vt 0.153303 0.323291
vt 0.487720 0.968195
vt 0.073422 0.968195
vt 0.089037 0.041244
vt 0.483857 0.041244
vt 0.483857 0.222103
vt 0.089037 0.222103
vt 0.701642 0.327276
vt 0.701642 0.436925
vt 0.591993 0.436925
vt 0.591993 0.327276
vt 0.097581 0.044396
vt 0.481851 0.044396
vt 0.481851 0.221956
vt 0.097581 0.221956
vt 0.375000 0.750000
vt 0.625000 0.750000
vt 0.625000 1.000000
vt 0.375000 1.000000
vt 0.107545 0.059477
vt 0.473584 0.059477
vt 0.473584 0.224434
vt 0.107545 0.224434
vt 0.093499 0.055896
vt 0.476301 0.055896
vt 0.476301 0.227569
vt 0.093499 0.227569
vt 0.617733 0.734324
vt 0.692294 0.734324
vt 0.692294 0.808885
vt 0.617733 0.808885
vt 0.616753 0.734382
vt 0.691314 0.734382
vt 0.691314 0.808944
vt 0.616753 0.808944
vt 0.805946 0.883865
vt 0.880508 0.883865
vt 0.880508 0.958427
vt 0.805946 0.958427
vt 0.805946 0.884904
vt 0.880508 0.884904
vt 0.880508 0.959466
vt 0.805946 0.959466
vt 0.594192 0.714518
vt 0.900332 0.714518
vt 0.900332 0.978750
vt 0.594192 0.978750
vt 0.617675 0.736285
vt 0.692236 0.736285
vt 0.692236 0.810846
vt 0.617675 0.810846
vt 0.809837 0.737235
vt 0.884399 0.737235
vt 0.884399 0.811796
vt 0.809837 0.811796
vt 0.805946 0.882827
vt 0.880508 0.882827
vt 0.880508 0.957388
vt 0.805946 0.957388
vt 0.805946 0.883865
vt 0.880508 0.883865
vt 0.880508 0.958427
vt 0.805946 0.958427
vt 0.805946 0.884904
vt 0.880508 0.884904
vt 0.880508 0.959466
vt 0.805946 0.959466
vt 0.594192 0.714518
vt 0.900332 0.714518
vt 0.900332 0.978750
vt 0.594192 0.978750
vt 0.806868 0.884729
vt 0.881430 0.884729
vt 0.881430 0.959290
vt 0.806868 0.959290
vt 0.642784 0.370965
vt 0.671731 0.370965
vt 0.671731 0.399912
vt 0.642784 0.399912
vt 0.671731 0.428860
vt 0.642784 0.428860
vt 0.671731 0.457807
vt 0.642784 0.457807
vt 0.671731 0.486755
vt 0.642784 0.486755
vt 0.700678 0.370965
vt 0.700678 0.399912
vt 0.613836 0.370965
vt 0.613836 0.399912
vt 0.804016 0.728503
vt 0.878577 0.728503
vt 0.878577 0.803064
vt 0.804016 0.803064
vt 0.805946 0.882827
vt 0.880508 0.882827
vt 0.880508 0.957388
vt 0.805946 0.957388
vt 0.805946 0.883865
vt 0.880508 0.883865
vt 0.880508 0.958427
vt 0.805946 0.958427
vt 0.805946 0.884904
vt 0.880508 0.884904
vt 0.880508 0.959466
vt 0.805946 0.959466
vt 0.594192 0.714518
vt 0.900332 0.714518
vt 0.900332 0.978750
vt 0.594192 0.978750
vt 0.617675 0.884729
vt 0.692236 0.884729
vt 0.692236 0.959290
vt 0.617675 0.959290
vt 0.809837 0.737235
vt 0.884399 0.737235
vt 0.884399 0.811796
vt 0.809837 0.811796
vt 0.805946 0.882827
vt 0.880508 0.882827
vt 0.880508 0.957388
vt 0.805946 0.957388
vt 0.805946 0.883865
vt 0.880508 0.883865
vt 0.880508 0.958427
vt 0.805946 0.958427
vt 0.805946 0.884904
vt 0.880508 0.884904
vt 0.880508 0.959466
vt 0.805946 0.959466
vt 0.594192 0.714518
vt 0.900332 0.714518
vt 0.900332 0.978750
vt 0.594192 0.978750
vt 0.806868 0.884729
vt 0.881430 0.884729
vt 0.881430 0.959290
vt 0.806868 0.959290
vn 0.000000 0.287308 0.957838
vn 0.000000 0.287308 0.957838
vn 0.000000 0.287308 0.957838
vn 0.000000 0.287308 0.957838
vn 0.000000 0.957838 -0.287309
vn 0.000000 0.957838 -0.287309
vn 0.000000 0.957838 -0.287309
vn 0.000000 0.957838 -0.287309
vn 0.000000 -0.287308 -0.957838
vn 0.000000 -0.287308 -0.957838
vn 0.000000 -0.287308 -0.957838
vn 0.000000 -0.287308 -0.957838
vn 0.000000 -0.957839 0.287307
vn 0.000000 -0.957839 0.287307
vn 0.000000 -0.957839 0.287307
vn 0.000000 -0.957839 0.287307
vn 1.000000 0.000000 0.000000
vn 1.000000 0.000000 0.000000
vn 1.000000 0.000000 0.000000
vn 1.000000 0.000000 0.000000
vn -1.000000 0.000000 0.000000
vn -1.000000 0.000000 0.000000
vn -1.000000 0.000000 0.000000
vn -1.000000 0.000000 0.000000
vn 0.000000 0.000000 1.000000
vn 0.000000 0.000000 1.000000
vn 0.000000 0.000000 1.000000
vn 0.000000 0.000000 1.000000
vn 0.000000 1.000000 0.000000
vn 0.000000 1.000000 0.000000
vn 0.000000 1.000000 0.000000
vn 0.000000 1.000000 0.000000
vn 0.000000 0.000000 -1.000000
vn 0.000000 0.000000 -1.000000
vn 0.000000 0.000000 -1.000000
vn 0.000000 0.000000 -1.000000
vn 0.000000 -1.000000 0.000000
vn 0.000000 -1.000000 0.000000
vn 0.000000 -1.000000 0.000000
vn 0.000000 -1.000000 0.000000
vn 1.000000 0.000000 0.000000
vn 1.000000 0.000000 0.000000
vn 1.000000 0.000000 0.000000
vn 1.000000 0.000000 0.000000
vn -1.000000 0.000000 0.000000
vn -1.000000 0.000000 0.000000
vn -1.000000 0.000000 0.000000
vn -1.000000 0.000000 0.000000
vn 0.000000 0.000000 1.000000
vn 0.000000 0.000000 1.000000
vn 0.000000 0.000000 1.000000
vn 0.000000 0.000000 1.000000
vn -0.000000 0.999846 0.017584
vn -0.000068 0.999842 0.017782
vn 0.000000 1.000000 0.000000
vn 0.000000 1.000000 0.000000
vn 0.000000 0.000000 -1.000000
vn 0.000000 0.000000 -1.000000
vn 0.000000 0.000000 -1.000000
vn 0.000000 0.000000 -1.000000
vn 0.000000 -1.000000 0.000000
vn 0.000000 -1.000000 0.000000
vn 0.000000 -1.000000 0.000000
vn 0.000000 -1.000000 0.000000
vn 0.974538 0.223158 -0.021803
vn 0.998426 0.051846 -0.021408
vn 0.986205 0.052046 -0.157136
vn 0.963743 0.218149 -0.153655
vn 0.999768 0.000011 -0.021519
vn 0.987548 0.000078 -0.157319
vn 0.000000 0.997214 0.074599
vn -0.000069 0.997214 0.074599
vn -0.000228 0.997215 0.074583
vn 0.000000 0.997215 0.074585
vn 0.984543 0.062062 0.163777
vn 0.997006 0.054961 0.054397
vn 0.946758 0.318406 0.047608
vn 0.888547 0.429783 0.160534
vn 0.986778 0.001184 0.162071
vn 0.998398 0.000413 0.056584
vn 0.972068 0.234690 0.001905
vn 0.998575 0.053360 0.000398
vn 1.000000 0.000000 0.000000
vn 1.000000 0.000000 0.000000
vn 1.000000 0.000000 0.000000
vn 1.000000 0.000000 0.000000
vn 1.000000 0.000000 0.000000
vn 1.000000 0.000000 0.000000
vn 1.000000 0.000000 0.000000
vn 1.000000 0.000000 0.000000
vn 1.000000 0.000000 0.000000
vn 1.000000 0.000000 0.000000
vn 1.000000 0.000000 0.000000
vn 1.000000 0.000000 0.000000
vn 0.000000 -1.000000 0.000000
vn 0.000000 -1.000000 -0.000000
vn 0.000000 -1.000000 -0.000000
vn 0.000000 -1.000000 -0.000000
vn 0.000000 -1.000000 -0.000000
vn 0.000000 0.000000 -1.000000
vn 0.000000 0.000000 -1.000000
vn 0.000000 1.000000 0.000000
vn 0.000000 1.000000 0.000000
vn 0.000000 0.000000 1.000000
vn 0.000000 0.000000 1.000000
vn 0.000000 0.000000 1.000000
vn 0.000000 0.000000 1.000000
vn 0.000000 1.000000 0.000000
vn 0.000068 0.999842 0.017782
vn 0.000000 0.000000 -1.000000
vn 0.000000 0.000000 -1.000000
vn 0.000000 -1.000000 0.000000
vn 0.000000 -1.000000 0.000000
vn -0.974539 0.223158 -0.021803
vn -0.963743 0.218149 -0.153655
vn -0.986205 0.052046 -0.157136
vn -0.998426 0.051846 -0.021408
vn -0.987548 0.000078 -0.157319
vn -0.999768 0.000011 -0.021519
vn 0.000228 0.997215 0.074583
vn 0.000069 0.997214 0.074599
vn -0.984543 0.062062 0.163777
vn -0.888547 0.429783 0.160535
vn -0.946758 0.318406 0.047608
vn -0.997006 0.054961 0.054397
vn -0.986778 0.001184 0.162071
vn -0.998398 0.000413 0.056584
vn -0.972068 0.234690 0.001905
vn -0.998575 0.053360 0.000398
vn -1.000000 0.000000 0.000000
vn -1.000000 -0.000000 -0.000000
vn -1.000000 -0.000000 -0.000000
vn -1.000000 -0.000000 -0.000000
vn -1.000000 -0.000000 -0.000000
vn -1.000000 -0.000000 -0.000000
vn -1.000000 -0.000000 -0.000000
vn -1.000000 -0.000000 -0.000000
vn -1.000000 -0.000000 -0.000000
vn -1.000000 -0.000000 -0.000000
vn -1.000000 -0.000000 -0.000000
vn -1.000000 -0.000000 -0.000000
vn 0.000000 -1.000000 0.000000
vn 0.000000 -1.000000 0.000000
vn 0.000000 -1.000000 0.000000
vn 0.000000 0.000000 -1.000000
vn 0.000000 1.000000 0.000000
vn 0.000000 0.000000 1.000000
vn 0.000000 0.785019 0.619472
vn 0.000000 0.785019 0.619472
vn 0.000000 0.785019 0.619472
vn 0.000000 0.785019 0.619472
vn 0.000000 1.000000 0.000000
vn 0.000000 1.000000 0.000000
vn 0.000000 1.000000 0.000000
vn 0.000000 1.000000 0.000000
vn 0.000000 0.819459 -0.573138
vn 0.000000 0.819459 -0.573138
vn 0.000000 0.819459 -0.573138
vn 0.000000 0.819459 -0.573138
vn 0.000000 -1.000000 0.000000
vn 0.000000 -1.000000 0.000000
vn 0.000000 -1.000000 0.000000
vn 0.000000 -1.000000 0.000000
vn 0.966124 0.258078 0.000000
vn 0.966124 0.258078 0.000000
vn 0.966124 0.258078 0.000000
vn 0.966124 0.258078 0.000000
vn -0.951912 0.306371 0.000000
vn -0.951912 0.306371 0.000000
vn -0.951912 0.306371 0.000000
vn -0.951912 0.306371 0.000000
vn 0.000000 0.000000 1.000000
vn 0.000000 0.000000 1.000000
vn 0.000000 0.000000 1.000000
vn 0.000000 0.000000 1.000000
vn 0.000000 -1.000000 0.000000
vn 0.000000 -1.000000 0.000000
vn 0.000000 -1.000000 0.000000
vn 0.000000 -1.000000 0.000000
vn 0.000000 0.000000 -1.000000
vn 0.000000 0.000000 -1.000000
vn 0.000000 0.000000 -1.000000
vn 0.000000 0.000000 -1.000000
vn 0.000000 1.000000 0.000000
vn 0.000000 1.000000 0.000000
vn 0.000000 1.000000 0.000000
vn 0.000000 1.000000 0.000000
vn -1.000000 0.000000 0.000000
vn -1.000000 0.000000 0.000000
vn -1.000000 0.000000 0.000000
vn -1.000000 0.000000 0.000000
vn 1.000000 0.000000 0.000000
vn 1.000000 0.000000 0.000000
vn 1.000000 0.000000 0.000000
vn 1.000000 0.000000 0.000000
vn 0.000000 0.000000 1.000000
vn 0.000000 0.000000 1.000000
vn 0.000000 0.000000 1.000000
vn 0.000000 0.000000 1.000000
vn 0.000000 1.000000 0.000000
vn 0.000000 1.000000 0.000000
vn 0.000000 1.000000 0.000000
vn 0.000000 1.000000 0.000000
vn 0.000000 0.000000 -1.000000
vn 0.000000 0.000000 -1.000000
vn 0.000000 0.000000 -1.000000
vn 0.000000 0.000000 -1.000000
vn 0.000000 -1.000000 0.000000
vn 0.000000 -1.000000 0.000000
vn 0.000000 -1.000000 0.000000
vn 0.000000 -1.000000 0.000000
vn 1.000000 0.000000 0.000000
vn 1.000000 0.000000 0.000000
vn 1.000000 0.000000 0.000000
vn 1.000000 0.000000 0.000000
vn -1.000000 0.000000 0.000000
vn -1.000000 0.000000 0.000000
vn -1.000000 0.000000 0.000000
vn -1.000000 0.000000 0.000000
vn 0.000000 0.287309 0.957838
vn 0.000000 0.287309 0.957838
vn 0.000000 0.287309 0.957838
vn 0.000000 0.287309 0.957838
vn 0.000000 0.957838 -0.287309
vn 0.000000 0.957838 -0.287309
vn 0.000000 0.957838 -0.287309
vn 0.000000 0.957838 -0.287309
vn 0.000000 -0.287309 -0.957838
vn 0.000000 -0.287309 -0.957838
vn 0.000000 -0.287309 -0.957838
vn 0.000000 -0.287309 -0.957838
vn 0.000000 -0.957839 0.287307
vn 0.000000 -0.957839 0.287307
vn 0.000000 -0.957839 0.287307
vn 0.000000 -0.957839 0.287307
vn 1.000000 0.000000 0.000000
vn 1.000000 0.000000 0.000000
vn 1.000000 0.000000 0.000000
vn 1.000000 0.000000 0.000000
vn -1.000000 0.000000 0.000000
vn -1.000000 0.000000 0.000000
vn -1.000000 0.000000 0.000000
vn -1.000000 0.000000 0.000000
vn 0.000000 0.000000 1.000000
vn 0.000000 0.000000 1.000000
vn 0.000000 0.000000 1.000000
vn 0.000000 0.000000 1.000000
vn 0.000000 -1.000000 0.000000
vn 0.000000 -1.000000 0.000000
vn 0.000000 -1.000000 0.000000
vn 0.000000 -1.000000 0.000000
vn 0.000000 0.000000 -1.000000
vn 0.000000 0.000000 -1.000000
vn 0.000000 0.000000 -1.000000
vn 0.000000 0.000000 -1.000000
vn 0.000000 1.000000 0.000000
vn 0.000000 1.000000 0.000000
vn 0.000000 1.000000 0.000000
vn 0.000000 1.000000 0.000000
vn -1.000000 0.000000 0.000000
vn -1.000000 0.000000 0.000000
vn -1.000000 0.000000 0.000000
vn -1.000000 0.000000 0.000000
vn 1.000000 0.000000 0.000000
vn 1.000000 0.000000 0.000000
vn 1.000000 0.000000 0.000000
vn 1.000000 0.000000 0.000000
vn 0.000000 0.000000 1.000000
vn 0.000000 0.000000 1.000000
vn 0.000000 0.000000 1.000000
vn 0.000000 0.000000 1.000000
vn 0.000000 1.000000 0.000000
vn 0.000000 1.000000 0.000000
vn 0.000000 1.000000 0.000000
vn 0.000000 1.000000 0.000000
vn 0.000000 0.000000 -1.000000
vn 0.000000 0.000000 -1.000000
vn 0.000000 0.000000 -1.000000
vn 0.000000 0.000000 -1.000000
vn 0.000000 -1.000000 0.000000
vn 0.000000 -1.000000 0.000000
vn 0.000000 -1.000000 0.000000
vn 0.000000 -1.000000 0.000000
vn 1.000000 0.000000 0.000000
vn 1.000000 0.000000 0.000000
vn 1.000000 0.000000 0.000000
vn 1.000000 0.000000 0.000000
vn -1.000000 0.000000 0.000000
vn -1.000000 0.000000 0.000000
vn -1.000000 0.000000 0.000000
vn -1.000000 0.000000 0.000000
s off
g pole_left1
usemtl lambert2SG
f 1/1/1 2/2/2 4/4/3 3/3/4
f 3/3/5 4/4/6 6/6/7 5/5/8
f 5/5/9 6/6/10 8/8/11 7/7/12
f 7/7/13 8/8/14 2/10/15 1/9/16
f 2/2/17 8/11/18 6/12/19 4/4/20
f 7/13/21 1/1/22 3/3/23 5/14/24
f 9/15/25 10/16/26 12/17/27 11/18/28
f 11/18/29 12/17/30 14/19/31 13/20/32
f 13/20/33 14/19/34 16/21/35 15/22/36
f 15/22/37 16/21/38 10/23/39 9/24/40
f 10/16/41 16/25/42 14/26/43 12/17/44
f 15/27/45 9/15/46 11/18/47 13/28/48
s 1
f 17/29/49 18/30/50 25/31/51 53/32/52
s 2
f 27/33/53 28/34/54 32/35/55 50/36/56
s 3
f 21/37/57 22/38/58 26/39/59 46/40/60
s 4
f 23/41/61 24/42/62 34/43/63 43/44/64
s 5
f 32/45/65 33/46/66 26/47/67 22/48/68
f 33/46/66 34/49/69 24/50/70 26/47/67
s 2
f 19/51/71 20/52/72 29/53/73 41/54/74
s 5
f 25/55/75 30/56/76 29/57/77 20/58/78
f 18/59/79 31/60/80 30/56/76 25/55/75
f 28/61/81 48/62/82 33/46/66 32/45/65
f 48/62/82 51/63/83 34/49/69 33/46/66
s off
f 38/64/84 47/65/85 37/66/86 49/67/87 39/68/88 40/69/89 36/70/90 52/71/91 35/72/92 44/73/93 42/74/94
s 2
f 41/54/74 29/53/73 28/34/54 27/33/53
s 4
f 43/44/64 34/43/63 51/75/95 31/76/96 45/77/97
f 45/77/97 31/76/96 18/78/98 17/79/99
s 3
f 46/80/60 26/81/59 24/82/100 23/83/101
s 5
f 29/57/77 30/56/76 48/62/82 28/61/81
s 2
f 50/36/56 32/35/55 22/84/102 21/85/103
s 5
f 30/56/76 31/60/80 51/63/83 48/62/82
s 1
f 53/32/52 25/31/51 20/86/104 19/87/105
f 17/88/49 53/89/52 58/90/106 54/91/107
s 2
f 27/92/53 50/93/56 64/94/108 60/95/109
s 3
f 21/96/57 46/97/60 59/98/110 56/99/111
s 4
f 23/100/61 43/101/64 66/102/112 57/103/113
s 7
f 64/104/114 56/105/115 59/106/116 65/107/117
f 65/107/117 59/106/116 57/108/118 66/109/119
s 2
f 19/110/71 41/111/74 61/112/120 55/113/121
s 7
f 58/114/122 55/115/123 61/116/124 62/117/125
f 54/118/126 58/114/122 62/117/125 63/119/127
f 60/120/128 64/104/114 65/107/117 67/121/129
f 67/121/129 65/107/117 66/109/119 68/122/130
s off
f 38/123/131 42/124/132 44/125/133 35/126/134 52/127/135 36/128/136 40/129/137 39/130/138 49/131/139 37/132/140 47/133/141
s 2
f 41/111/74 27/92/53 60/95/109 61/112/120
s 4
f 43/101/64 45/134/97 63/135/142 68/136/143 66/102/112
f 45/134/97 17/137/99 54/138/144 63/135/142
s 3
f 46/139/60 23/140/101 57/141/145 59/142/110
s 7
f 61/116/124 60/120/128 67/121/129 62/117/125
s 2
f 50/93/56 21/143/103 56/144/146 64/94/108
s 7
f 62/117/125 67/121/129 68/122/130 63/119/127
s 1
f 53/89/52 19/145/105 55/146/147 58/90/106
s off
f 60/147/148 28/148/149 70/149/150 69/150/151
f 69/151/152 70/152/153 72/153/154 71/154/155
f 71/155/156 72/156/157 32/157/158 64/158/159
f 64/159/160 32/160/161 28/161/162 60/162/163
f 28/163/164 32/164/165 72/165/166 70/166/167
f 64/167/168 60/168/169 69/169/170 71/170/171
f 73/171/172 74/172/173 76/173/174 75/174/175
f 75/175/176 76/176/177 78/177/178 77/178/179
f 77/179/180 78/180/181 80/181/182 79/182/183
f 79/183/184 80/184/185 74/185/186 73/186/187
f 74/187/188 80/188/189 78/189/190 76/190/191
f 79/191/192 73/192/193 75/193/194 77/194/195
f 81/195/196 82/196/197 84/197/198 83/198/199
f 83/199/200 84/200/201 86/201/202 85/202/203
f 85/203/204 86/204/205 88/205/206 87/206/207
f 87/207/208 88/208/209 82/209/210 81/210/211
f 82/211/212 88/212/213 86/213/214 84/214/215
f 87/215/216 81/216/217 83/217/218 85/218/219
f 89/219/220 90/220/221 92/221/222 91/222/223
f 91/222/224 92/221/225 94/223/226 93/224/227
f 93/224/228 94/223/229 96/225/230 95/226/231
f 95/226/232 96/225/233 90/227/234 89/228/235
f 90/220/236 96/229/237 94/230/238 92/221/239
f 95/231/240 89/219/241 91/222/242 93/232/243
f 97/233/244 98/234/245 100/235/246 99/236/247
f 99/237/248 100/238/249 102/239/250 101/240/251
f 101/241/252 102/242/253 104/243/254 103/244/255
f 103/245/256 104/246/257 98/247/258 97/248/259
f 98/249/260 104/250/261 102/251/262 100/252/263
f 103/253/264 97/254/265 99/255/266 101/256/267
f 105/257/268 106/258/269 108/259/270 107/260/271
f 107/261/272 108/262/273 110/263/274 109/264/275
f 109/265/276 110/266/277 112/267/278 111/268/279
f 111/269/280 112/270/281 106/271/282 105/272/283
f 106/273/284 112/274/285 110/275/286 108/276/287
f 111/277/288 105/278/289 107/279/290 109/280/291
