# This file uses centimeters as units for non-parametric coordinates.

mtllib highwayhell_tree.mtl
g default
v -0.500000 0.083654 0.500000
v 0.500000 0.083654 0.500000
v -0.500000 1.944927 0.500000
v 0.500000 1.944927 0.500000
v -0.500000 1.944927 -0.500000
v 0.500000 1.944927 -0.500000
v -0.500000 0.083654 -0.500000
v 0.500000 0.083654 -0.500000
v -2.438244 1.944927 2.438244
v 2.438244 1.944927 2.438244
v 2.438244 1.944927 -2.438244
v -2.438244 1.944927 -2.438244
v -2.438244 5.383487 2.438244
v 2.438244 5.383487 2.438244
v 2.438244 5.383487 -2.438244
v -2.438244 5.383487 -2.438244
v -1.495574 5.383487 1.535443
v 1.451535 5.383487 1.535443
v 1.451535 5.383487 -1.544870
v -1.495574 5.383487 -1.544870
v -1.495574 6.824842 1.535443
v 1.451535 6.824842 1.535443
v 1.451535 6.824842 -1.544870
v -1.495574 6.824842 -1.544870
vt 0.827063 0.714438
vt 0.818338 0.722612
vt 0.352336 0.212078
vt 0.458476 0.212078
vt 0.352336 0.318219
vt 0.458476 0.318219
vt 0.736759 0.598334
vt 0.832373 0.813614
vt 0.736759 0.683422
vt 0.821847 0.683422
vt 0.826559 0.705625
vt 0.826559 0.801239
vt 0.724431 0.714438
vt 0.724431 0.817070
vt 0.352336 0.212078
vt 0.458476 0.212078
vt 0.458476 0.318219
vt 0.352336 0.318219
vt 0.454787 0.723421
vt 0.557419 0.723421
vt 0.557419 0.826053
vt 0.454787 0.826053
vt 0.730945 0.705625
vt 0.730945 0.801239
vt 0.818338 0.800682
vt 0.740268 0.722612
vt 0.740268 0.800682
vt 0.827063 0.817070
vt 0.726233 0.813614
vt 0.821847 0.598334
vt 0.726233 0.707474
vt 0.832373 0.707474
vt 0.208838 0.410453
vt 0.258980 0.410454
vt 0.258980 0.458265
vt 0.208838 0.458265
vt 0.208838 0.409990
vt 0.258980 0.409990
vt 0.258980 0.457801
vt 0.208838 0.457801
vt 0.208838 0.410645
vt 0.258980 0.410645
vt 0.258980 0.458456
vt 0.208838 0.458456
vt 0.208838 0.410222
vt 0.258980 0.410222
vt 0.258980 0.458033
vt 0.208838 0.458033
vt 0.173810 0.713913
vt 0.289139 0.713913
vt 0.265803 0.735264
vt 0.196104 0.735264
vt 0.289139 0.829241
vt 0.265803 0.808113
vt 0.173810 0.829241
vt 0.196104 0.808113
vt 0.319441 0.831901
vt 0.319441 0.674636
vt 0.346131 0.674636
vt 0.346131 0.831901
vt 0.347268 0.831901
vt 0.347268 0.674636
vt 0.373958 0.674636
vt 0.373958 0.831901
vt 0.375066 0.825100
vt 0.375066 0.674636
vt 0.401756 0.674636
vt 0.401756 0.825100
vt 0.429554 0.674636
vt 0.429554 0.825100
vt 0.402864 0.825100
vt 0.402864 0.674636
vn 0.000000 0.000000 1.000000
vn 0.000000 0.000000 1.000000
vn 0.000000 0.000000 1.000000
vn 0.000000 0.000000 1.000000
vn 0.000000 1.000000 0.000000
vn 0.000000 1.000000 0.000000
vn 0.000000 1.000000 0.000000
vn 0.000000 1.000000 0.000000
vn 0.000000 0.000000 -1.000000
vn 0.000000 0.000000 -1.000000
vn 0.000000 0.000000 -1.000000
vn 0.000000 0.000000 -1.000000
vn 0.000000 -1.000000 0.000000
vn 0.000000 -1.000000 0.000000
vn 0.000000 -1.000000 0.000000
vn 0.000000 -1.000000 0.000000
vn 1.000000 0.000000 0.000000
vn 1.000000 0.000000 0.000000
vn 1.000000 0.000000 0.000000
vn 1.000000 0.000000 0.000000
vn -1.000000 0.000000 0.000000
vn -1.000000 0.000000 0.000000
vn -1.000000 0.000000 0.000000
vn -1.000000 0.000000 0.000000
vn 0.000000 -1.000000 -0.000000
vn 0.000000 -1.000000 -0.000000
vn 0.000000 -1.000000 -0.000000
vn 0.000000 -1.000000 -0.000000
vn 0.000000 -1.000000 0.000000
vn 0.000000 -1.000000 0.000000
vn 0.000000 -1.000000 0.000000
vn 0.000000 -1.000000 0.000000
vn 0.000000 -1.000000 0.000000
vn 0.000000 -1.000000 0.000000
vn 0.000000 -1.000000 0.000000
vn 0.000000 -1.000000 0.000000
vn 0.000000 -1.000000 0.000000
vn 0.000000 -1.000000 0.000000
vn 0.000000 -1.000000 0.000000
vn 0.000000 -1.000000 0.000000
vn 0.000000 0.000000 1.000000
vn 0.000000 0.000000 1.000000
vn 0.000000 0.000000 1.000000
vn 0.000000 0.000000 1.000000
vn 1.000000 0.000000 0.000000
vn 1.000000 0.000000 0.000000
vn 1.000000 0.000000 0.000000
vn 1.000000 0.000000 0.000000
vn 0.000000 0.000000 -1.000000
vn 0.000000 0.000000 -1.000000
vn 0.000000 0.000000 -1.000000
vn 0.000000 0.000000 -1.000000
vn -1.000000 0.000000 0.000000
vn -1.000000 0.000000 0.000000
vn -1.000000 0.000000 0.000000
vn -1.000000 0.000000 0.000000
vn 0.000000 1.000000 -0.000000
vn 0.000000 1.000000 -0.000000
vn 0.000000 1.000000 -0.000000
vn 0.000000 1.000000 -0.000000
vn 0.000000 1.000000 0.000000
vn 0.000000 1.000000 0.000000
vn 0.000000 1.000000 0.000000
vn 0.000000 1.000000 0.000000
vn 0.000000 1.000000 0.000000
vn 0.000000 1.000000 0.000000
vn 0.000000 1.000000 0.000000
vn 0.000000 1.000000 0.000000
vn 0.000000 1.000000 0.000000
vn 0.000000 1.000000 0.000000
vn 0.000000 1.000000 0.000000
vn 0.000000 1.000000 0.000000
vn 0.000000 0.000000 1.000000
vn 0.000000 0.000000 1.000000
vn 0.000000 0.000000 1.000000
vn 0.000000 0.000000 1.000000
vn 1.000000 0.000000 0.000000
vn 1.000000 0.000000 0.000000
vn 1.000000 0.000000 0.000000
vn 1.000000 0.000000 0.000000
vn 0.000000 0.000000 -1.000000
vn 0.000000 0.000000 -1.000000
vn 0.000000 0.000000 -1.000000
vn 0.000000 0.000000 -1.000000
vn -1.000000 0.000000 0.000000
vn -1.000000 0.000000 0.000000
vn -1.000000 0.000000 0.000000
vn -1.000000 0.000000 0.000000
s off
g tree_mesh
usemtl lambert2SG
f 1/26/1 2/2/2 4/25/3 3/27/4
f 21/19/5 22/20/6 23/21/7 24/22/8
f 5/31/9 6/32/10 8/8/11 7/29/12
f 7/7/13 8/30/14 2/10/15 1/9/16
f 2/23/17 8/11/18 6/12/19 4/24/20
f 7/13/21 1/1/22 3/28/23 5/14/24
f 3/3/25 4/4/26 10/16/27 9/15/28
f 4/4/29 6/6/30 11/17/31 10/16/32
f 6/6/33 5/5/34 12/18/35 11/17/36
f 5/5/37 3/3/38 9/15/39 12/18/40
f 9/41/41 10/42/42 14/43/43 13/44/44
f 10/33/45 11/34/46 15/35/47 14/36/48
f 11/45/49 12/46/50 16/47/51 15/48/52
f 12/37/53 9/38/54 13/39/55 16/40/56
f 13/49/57 14/50/58 18/51/59 17/52/60
f 14/50/61 15/53/62 19/54/63 18/51/64
f 15/53/65 16/55/66 20/56/67 19/54/68
f 16/55/69 13/49/70 17/52/71 20/56/72
f 17/65/73 18/66/74 22/67/75 21/68/76
f 18/57/77 19/58/78 23/59/79 22/60/80
f 19/69/81 20/70/82 24/71/83 23/72/84
f 20/61/85 17/62/86 21/63/87 24/64/88
