# This file uses centimeters as units for non-parametric coordinates.

mtllib table.mtl
g default
v -8.296908 4.801215 4.982328
v 7.533159 4.801215 4.982328
v -8.296908 5.555388 4.982328
v 7.533159 5.555388 4.982328
v -8.296908 5.555388 -4.982328
v 7.533159 5.555388 -4.982328
v -8.296908 4.801215 -4.982328
v 7.533159 4.801215 -4.982328
v 6.147186 4.801215 -4.982328
v 6.147186 4.801215 4.982328
v 6.147186 5.555388 4.982328
v 6.147186 5.555388 -4.982328
v 4.600631 4.801215 -4.982328
v 4.600631 4.801215 4.982328
v 4.600631 5.555388 4.982328
v 4.600631 5.555388 -4.982328
v -5.346165 4.801215 -4.982328
v -5.346165 4.801215 4.982328
v -5.346165 5.555388 4.982328
v -5.346165 5.555388 -4.982328
v -6.718288 4.801215 -4.982328
v -6.718288 4.801215 4.982328
v -6.718288 5.555388 4.982328
v -6.718288 5.555388 -4.982328
v 4.600631 4.801215 -1.750479
v -5.346165 4.801215 -1.750479
v -6.718288 4.801215 -1.750479
v -8.296908 4.801215 -1.750479
v -8.296908 5.555388 -1.750479
v -6.718288 5.555388 -1.750479
v -5.346165 5.555388 -1.750479
v 4.600631 5.555388 -1.750479
v 6.147186 5.555388 -1.750479
v 7.533159 5.555388 -1.750479
v 7.533159 4.801215 -1.750479
v 6.147186 4.801215 -1.750479
v 4.600631 4.801215 -3.346410
v -5.346165 4.801215 -3.346410
v -6.718288 4.801215 -3.346410
v -8.296908 4.801215 -3.346410
v -8.296908 5.555388 -3.346410
v -6.718288 5.555388 -3.346410
v -5.346165 5.555388 -3.346410
v 4.600631 5.555388 -3.346410
v 6.147186 5.555388 -3.346410
v 7.533159 5.555388 -3.346410
v 7.533159 4.801215 -3.346410
v 6.147186 4.801215 -3.346410
v 4.600631 5.555388 3.450460
v -5.346165 5.555388 3.450460
v -6.718288 5.555388 3.450460
v -8.296908 5.555388 3.450460
v -8.296908 4.801215 3.450460
v -6.718288 4.801215 3.450460
v -5.346165 4.801215 3.450460
v 4.600631 4.801215 3.450460
v 6.147186 4.801215 3.450460
v 7.533159 4.801215 3.450460
v 7.533159 5.555388 3.450460
v 6.147186 5.555388 3.450460
v 4.600631 5.555388 1.825032
v -5.346165 5.555388 1.825032
v -6.718288 5.555388 1.825032
v -8.296908 5.555388 1.825032
v -8.296908 4.801215 1.825032
v -6.718288 4.801215 1.825032
v -5.346165 4.801215 1.825032
v 4.600631 4.801215 1.825032
v 6.147186 4.801215 1.825032
v 7.533159 4.801215 1.825032
v 7.533159 5.555388 1.825032
v 6.147186 5.555388 1.825032
v -5.346165 1.030132 -3.346410
v -6.718288 1.030132 -3.346410
v -5.346165 1.030132 -1.750479
v -6.718288 1.030132 -1.750479
v 6.147186 1.030132 -3.346410
v 4.600631 1.030132 -3.346410
v 6.147186 1.030132 -1.750479
v 4.600631 1.030132 -1.750479
v -6.718288 1.030132 1.825032
v -5.346165 1.030132 1.825032
v -5.346165 1.030132 3.450460
v -6.718288 1.030132 3.450460
v 4.600631 1.030132 1.825032
v 6.147186 1.030132 1.825032
v 6.147186 1.030132 3.450460
v 4.600631 1.030132 3.450460
vt 0.692928 0.946457
vt 0.647999 0.171622
vt 0.605158 0.952998
vt 0.661397 0.953497
vt 0.653671 0.671790
vt 0.601184 0.672200
vt 0.600848 0.617651
vt 0.653406 0.617438
vt 0.600741 0.592487
vt 0.711461 0.571942
vt 0.926336 0.138170
vt 0.678684 0.671624
vt 0.072515 0.505877
vt 0.072393 0.572030
vt 0.124231 0.620560
vt 0.124474 0.675258
vt 0.128428 0.572083
vt 0.216559 0.156284
vt 0.172124 0.954027
vt 0.128909 0.169545
vt 0.072775 0.169488
vt 0.125686 0.954169
vt 0.170532 0.620345
vt 0.170819 0.675046
vt 0.190890 0.572008
vt 0.267752 0.156550
vt 0.223975 0.953883
vt 0.191460 0.169869
vt 0.222199 0.620023
vt 0.222533 0.674763
vt 0.592215 0.572349
vt 0.888465 0.137695
vt 0.557971 0.952392
vt 0.592749 0.170897
vt 0.555073 0.617882
vt 0.555457 0.672570
vt 0.732277 0.035646
vt 0.366162 0.034968
vt 0.601352 0.035689
vt 0.683928 0.895097
vt 0.658399 0.897745
vt 0.604388 0.899841
vt 0.557678 0.900581
vt 0.223753 0.902484
vt 0.171931 0.902683
vt 0.125497 0.902857
vt 0.072712 0.231540
vt 0.517872 0.030420
vt 0.320579 0.156824
vt 0.844416 0.137143
vt 0.927641 0.034086
vt 0.889769 0.033612
vt 0.845721 0.033059
vt 0.971689 0.034639
vt 0.970384 0.138722
vt 0.679054 0.724416
vt 0.654094 0.724738
vt 0.601631 0.725410
vt 0.555906 0.725942
vt 0.222832 0.728187
vt 0.171086 0.728455
vt 0.124699 0.728667
vt 0.072691 0.441492
vt 0.163732 0.156010
vt 0.268400 0.031723
vt 0.217207 0.031458
vt 0.164380 0.031183
vt 0.321226 0.031997
vt 0.223501 0.847976
vt 0.557144 0.845771
vt 0.603237 0.844850
vt 0.656008 0.843392
vt 0.710905 0.298328
vt 0.647386 0.035675
vt 0.647421 0.142474
vt 0.686279 0.142462
vt 0.732313 0.142444
vt 0.601387 0.142489
vt 0.686244 0.035661
vt 0.417563 0.033428
vt 0.421139 0.152683
vt 0.470045 0.151217
vt 0.521449 0.149676
vt 0.369736 0.154223
vt 0.466472 0.031962
vt 0.099996 0.848523
vt 0.125255 0.848416
vt 0.171683 0.848210
vt 0.647735 0.572232
vt 0.554915 0.592658
vt 0.222034 0.594790
vt 0.170394 0.595163
vt 0.072805 0.297207
vt 0.100241 0.902958
vt 0.099248 0.675354
vt 0.099448 0.728782
vt 0.099023 0.620644
vt 0.604800 0.979236
vt 0.557992 0.977814
vt 0.224076 0.979195
vt 0.172201 0.979307
vt 0.125758 0.979449
vt 0.711469 0.171904
vt 0.680912 0.842619
vt 0.711062 0.233258
vt 0.711128 0.506020
vt 0.710981 0.441901
vt 0.653339 0.592339
vt 0.678441 0.617337
vt 0.660858 0.980289
vt 0.100445 0.954257
vt 0.124102 0.595379
vt 0.191179 0.297301
vt 0.128803 0.297231
vt 0.128752 0.231538
vt 0.191301 0.231715
vt 0.128471 0.505975
vt 0.190952 0.505982
vt 0.128603 0.441562
vt 0.191039 0.441585
vt 0.592225 0.506351
vt 0.647552 0.506215
vt 0.647507 0.442001
vt 0.592266 0.442032
vt 0.647541 0.298221
vt 0.592394 0.298086
vt 0.592541 0.232621
vt 0.647699 0.233016
vt 0.566781 0.028955
vt 0.570355 0.148210
vt 0.771137 0.035633
vt 0.771173 0.142433
vt 0.112540 0.155744
vt 0.113188 0.030918
vt 0.806545 0.136668
vt 0.807850 0.032585
vn 0.000000 0.000000 1.000000
vn 0.000000 0.000000 1.000000
vn 0.000000 0.000000 1.000000
vn 0.000000 0.000000 1.000000
vn 0.000000 1.000000 0.000000
vn 0.000000 1.000000 0.000000
vn 0.000000 1.000000 0.000000
vn 0.000000 1.000000 0.000000
vn 0.000000 0.000000 -1.000000
vn 0.000000 0.000000 -1.000000
vn 0.000000 0.000000 -1.000000
vn 0.000000 0.000000 -1.000000
vn 0.000000 -1.000000 0.000000
vn 0.000000 -1.000000 0.000000
vn 0.000000 -1.000000 0.000000
vn 0.000000 -1.000000 0.000000
vn 1.000000 0.000000 0.000000
vn 1.000000 0.000000 0.000000
vn 1.000000 0.000000 0.000000
vn 1.000000 0.000000 0.000000
vn -1.000000 0.000000 0.000000
vn -1.000000 0.000000 0.000000
vn -1.000000 0.000000 0.000000
vn -1.000000 0.000000 0.000000
vn 0.000000 -1.000000 0.000000
vn 0.000000 -1.000000 0.000000
vn 0.000000 -1.000000 0.000000
vn 0.000000 -1.000000 0.000000
vn 0.000000 0.000000 1.000000
vn 0.000000 0.000000 1.000000
vn 0.000000 0.000000 1.000000
vn 0.000000 0.000000 1.000000
vn 0.000000 1.000000 0.000000
vn 0.000000 1.000000 0.000000
vn 0.000000 1.000000 0.000000
vn 0.000000 1.000000 0.000000
vn 0.000000 0.000000 -1.000000
vn 0.000000 0.000000 -1.000000
vn 0.000000 0.000000 -1.000000
vn 0.000000 0.000000 -1.000000
vn 0.000000 -1.000000 0.000000
vn 0.000000 -1.000000 0.000000
vn 0.000000 0.000000 1.000000
vn 0.000000 0.000000 1.000000
vn 0.000000 1.000000 0.000000
vn 0.000000 1.000000 0.000000
vn 0.000000 0.000000 -1.000000
vn 0.000000 0.000000 -1.000000
vn 0.000000 -1.000000 0.000000
vn 0.000000 -1.000000 0.000000
vn 0.000000 0.000000 1.000000
vn 0.000000 0.000000 1.000000
vn 0.000000 1.000000 0.000000
vn 0.000000 1.000000 0.000000
vn 0.000000 0.000000 -1.000000
vn 0.000000 0.000000 -1.000000
vn 0.000000 -1.000000 0.000000
vn 0.000000 -1.000000 0.000000
vn 0.000000 -1.000000 0.000000
vn 0.000000 -1.000000 0.000000
vn 0.000000 -1.000000 0.000000
vn 0.000000 -1.000000 0.000000
vn 0.000000 -1.000000 0.000000
vn 0.000000 -1.000000 0.000000
vn -1.000000 0.000000 0.000000
vn -1.000000 0.000000 0.000000
vn -1.000000 0.000000 0.000000
vn -1.000000 0.000000 0.000000
vn 0.000000 1.000000 0.000000
vn 0.000000 1.000000 0.000000
vn 0.000000 1.000000 0.000000
vn 0.000000 1.000000 0.000000
vn 0.000000 1.000000 0.000000
vn 0.000000 1.000000 0.000000
vn 0.000000 1.000000 0.000000
vn 0.000000 1.000000 0.000000
vn 0.000000 1.000000 0.000000
vn 0.000000 1.000000 0.000000
vn 0.000000 1.000000 0.000000
vn 0.000000 1.000000 0.000000
vn 1.000000 0.000000 0.000000
vn 1.000000 0.000000 0.000000
vn 1.000000 0.000000 0.000000
vn 1.000000 0.000000 0.000000
vn 0.000000 -1.000000 0.000000
vn 0.000000 -1.000000 0.000000
vn 0.000000 -1.000000 0.000000
vn 0.000000 -1.000000 0.000000
vn 0.000000 -1.000000 0.000000
vn 0.000000 -1.000000 0.000000
vn 0.000000 -1.000000 0.000000
vn 0.000000 -1.000000 0.000000
vn -1.000000 0.000000 0.000000
vn -1.000000 0.000000 0.000000
vn 0.000000 1.000000 0.000000
vn 0.000000 1.000000 0.000000
vn 0.000000 1.000000 0.000000
vn 0.000000 1.000000 -0.000000
vn 0.000000 1.000000 -0.000000
vn 0.000000 1.000000 0.000000
vn 1.000000 0.000000 0.000000
vn 1.000000 0.000000 0.000000
vn 0.000000 -1.000000 0.000000
vn 0.000000 -1.000000 0.000000
vn 0.000000 1.000000 0.000000
vn 0.000000 1.000000 0.000000
vn 0.000000 1.000000 0.000000
vn 0.000000 1.000000 0.000000
vn -1.000000 0.000000 0.000000
vn -1.000000 0.000000 0.000000
vn 0.000000 -1.000000 0.000000
vn 0.000000 -1.000000 0.000000
vn 0.000000 -1.000000 0.000000
vn 0.000000 -1.000000 0.000000
vn 0.000000 -1.000000 0.000000
vn 0.000000 -1.000000 0.000000
vn 1.000000 0.000000 0.000000
vn 1.000000 0.000000 0.000000
vn 0.000000 1.000000 0.000000
vn 0.000000 1.000000 0.000000
vn 0.000000 0.000000 -1.000000
vn 0.000000 0.000000 -1.000000
vn 0.000000 0.000000 -1.000000
vn 0.000000 0.000000 -1.000000
vn 1.000000 0.000000 0.000000
vn 1.000000 0.000000 0.000000
vn 1.000000 0.000000 0.000000
vn 1.000000 0.000000 0.000000
vn 0.000000 0.000000 1.000000
vn 0.000000 0.000000 1.000000
vn 0.000000 0.000000 1.000000
vn 0.000000 0.000000 1.000000
vn -1.000000 0.000000 0.000000
vn -1.000000 0.000000 0.000000
vn -1.000000 0.000000 0.000000
vn -1.000000 0.000000 0.000000
vn 0.000000 0.000000 -1.000000
vn 0.000000 0.000000 -1.000000
vn 0.000000 0.000000 -1.000000
vn 0.000000 0.000000 -1.000000
vn 1.000000 0.000000 0.000000
vn 1.000000 0.000000 0.000000
vn 1.000000 0.000000 0.000000
vn 1.000000 0.000000 0.000000
vn 0.000000 0.000000 1.000000
vn 0.000000 0.000000 1.000000
vn 0.000000 0.000000 1.000000
vn 0.000000 0.000000 1.000000
vn -1.000000 0.000000 0.000000
vn -1.000000 0.000000 0.000000
vn -1.000000 0.000000 0.000000
vn -1.000000 0.000000 0.000000
vn 0.000000 0.000000 -1.000000
vn 0.000000 0.000000 -1.000000
vn 0.000000 0.000000 -1.000000
vn 0.000000 0.000000 -1.000000
vn 1.000000 0.000000 0.000000
vn 1.000000 0.000000 0.000000
vn 1.000000 0.000000 0.000000
vn 1.000000 0.000000 0.000000
vn 0.000000 0.000000 1.000000
vn 0.000000 0.000000 1.000000
vn 0.000000 0.000000 1.000000
vn 0.000000 0.000000 1.000000
vn -1.000000 0.000000 0.000000
vn -1.000000 0.000000 0.000000
vn -1.000000 0.000000 0.000000
vn -1.000000 0.000000 0.000000
vn 0.000000 0.000000 -1.000000
vn 0.000000 0.000000 -1.000000
vn 0.000000 0.000000 -1.000000
vn 0.000000 0.000000 -1.000000
vn 1.000000 0.000000 0.000000
vn 1.000000 0.000000 0.000000
vn 1.000000 0.000000 0.000000
vn 1.000000 0.000000 0.000000
vn 0.000000 0.000000 1.000000
vn 0.000000 0.000000 1.000000
vn 0.000000 0.000000 1.000000
vn 0.000000 0.000000 1.000000
vn -1.000000 0.000000 0.000000
vn -1.000000 0.000000 0.000000
vn -1.000000 0.000000 0.000000
vn -1.000000 0.000000 0.000000
s 1
g pCube1
usemtl initialShadingGroup
f 1/110/1 22/98/2 23/3/3 3/4/4
s 2
f 41/5/5 42/6/6 24/7/7 5/8/8
s 3
f 5/8/9 24/7/10 21/9/11 7/108/12
s 4
f 7/10/13 21/89/14 39/122/15 40/106/16
s 5
f 47/95/17 8/97/18 6/15/19 46/16/20
s 6
f 7/109/21 40/12/22 41/5/23 5/8/24
s 4
f 9/17/25 8/14/26 47/13/27 48/117/28
s 1
f 11/19/29 10/101/30 2/102/31 4/22/32
s 2
f 12/23/33 45/24/34 46/16/35 6/15/36
s 3
f 9/92/37 12/23/38 6/15/39 8/112/40
s 4
f 13/25/41 9/17/25 48/117/28 37/118/42
s 1
f 15/27/43 14/100/44 10/101/30 11/19/29
s 2
f 16/29/45 44/30/46 45/24/34 12/23/33
s 3
f 13/91/47 16/29/48 12/23/38 9/92/37
s 4
f 17/31/49 13/25/41 37/118/42 38/121/50
s 1
f 19/33/51 18/99/52 14/100/44 15/27/43
s 2
f 20/35/53 43/36/54 44/30/46 16/29/45
s 3
f 17/90/55 20/35/56 16/29/48 13/91/47
s 4
f 21/89/14 17/31/49 38/121/50 39/122/15
s 1
f 23/3/3 22/98/2 18/99/52 19/33/51
s 2
f 24/7/7 42/6/6 43/36/54 20/35/53
s 3
f 21/9/11 24/7/10 20/35/56 17/90/55
s 4
f 55/127/57 56/116/58 14/28/59 18/34/60
f 54/128/61 55/127/57 18/34/60 22/2/62
f 53/105/63 54/128/61 22/2/62 1/103/64
s 6
f 52/41/65 53/40/66 1/1/67 3/4/68
s 2
f 3/4/69 23/3/70 51/42/71 52/41/72
f 50/43/73 51/42/71 23/3/70 19/33/74
f 49/44/75 50/43/73 19/33/74 15/27/76
f 60/45/77 49/44/75 15/27/76 11/19/78
f 59/46/79 60/45/77 11/19/78 4/22/80
s 5
f 2/111/81 58/94/82 59/46/83 4/22/84
s 4
f 57/115/85 58/47/86 2/21/87 10/20/88
f 56/116/58 57/115/85 10/20/88 14/28/59
f 38/121/50 37/118/42 25/120/89 26/124/90
f 40/106/16 39/122/15 27/123/91 28/107/92
s 6
f 41/5/23 40/12/22 28/56/93 29/57/94
s 2
f 29/57/95 30/58/96 42/6/6 41/5/5
f 43/36/54 42/6/6 30/58/96 31/59/97
f 44/30/46 43/36/54 31/59/97 32/60/98
f 45/24/34 44/30/46 32/60/98 33/61/99
f 46/16/35 45/24/34 33/61/99 34/62/100
s 5
f 35/96/101 47/95/17 46/16/20 34/62/102
s 4
f 48/117/28 47/13/27 35/63/103 36/119/104
s 2
f 61/69/105 62/70/106 50/43/73 49/44/75
f 62/70/106 63/71/107 51/42/71 50/43/73
f 52/41/72 51/42/71 63/71/107 64/72/108
s 6
f 64/72/109 65/104/110 53/40/66 52/41/65
s 4
f 65/73/111 66/125/112 54/128/61 53/105/63
f 67/126/113 68/113/114 56/116/58 55/127/57
f 69/114/115 70/93/116 58/47/86 57/115/85
s 5
f 59/46/83 58/94/82 70/86/117 71/87/118
s 2
f 71/87/119 72/88/120 60/45/77 59/46/79
f 72/88/120 61/69/105 49/44/75 60/45/77
f 32/60/98 31/59/97 62/70/106 61/69/105
f 31/59/97 30/58/96 63/71/107 62/70/106
f 64/72/108 63/71/107 30/58/96 29/57/95
s 6
f 29/57/94 28/56/93 65/104/110 64/72/109
s 4
f 28/107/92 27/123/91 66/125/112 65/73/111
f 27/123/91 26/124/90 67/126/113 66/125/112
f 26/124/90 25/120/89 68/113/114 67/126/113
f 25/120/89 36/119/104 69/114/115 68/113/114
f 36/119/104 35/63/103 70/93/116 69/114/115
s 5
f 71/87/118 70/86/117 35/96/101 34/62/102
s 2
f 34/62/100 33/61/99 72/88/120 71/87/119
f 33/61/99 32/60/98 61/69/105 72/88/120
s off
f 39/11/121 38/32/122 73/52/123 74/51/124
f 38/32/125 26/50/126 75/53/127 73/52/128
f 26/50/129 27/135/130 76/136/131 75/53/132
f 27/55/133 39/11/134 74/51/135 76/54/136
f 37/26/137 48/18/138 77/66/139 78/65/140
f 48/18/141 36/64/142 79/67/143 77/66/144
f 36/64/145 25/133/146 80/134/147 79/67/148
f 25/49/149 37/26/150 78/65/151 80/68/152
f 66/74/153 67/79/154 82/76/155 81/75/156
f 67/79/157 55/37/158 83/77/159 82/76/160
f 55/37/161 54/131/162 84/132/163 83/77/164
f 54/39/165 66/74/166 81/75/167 84/78/168
f 68/80/169 69/85/170 86/82/171 85/81/172
f 69/85/173 57/48/174 87/83/175 86/82/176
f 57/48/177 56/129/178 88/130/179 87/83/180
f 56/38/181 68/80/182 85/81/183 88/84/184
